<svg width="34" height="12" viewBox="0 0 34 12" fill="none" xmlns="http://www.w3.org/2000/svg">
<path d="M6.31784 3.83909C6.31784 4.15109 6.23984 4.43709 6.08384 4.69709C5.9365 4.95709 5.73284 5.16509 5.47284 5.32109C5.21284 5.47709 4.9225 5.55509 4.60184 5.55509H2.20984C2.10584 5.55509 2.05384 5.61143 2.05384 5.72409V8.40209C2.05384 8.56676 1.99317 8.70976 1.87184 8.83109C1.75917 8.94376 1.6205 9.00009 1.45584 9.00009H1.10484C0.940169 9.00009 0.797169 8.94376 0.675836 8.83109C0.563169 8.70976 0.506836 8.56676 0.506836 8.40209V0.810092C0.506836 0.636759 0.563169 0.493759 0.675836 0.381092C0.797169 0.268425 0.940169 0.212092 1.10484 0.212092H4.60184C4.9225 0.212092 5.21284 0.290092 5.47284 0.446092C5.73284 0.602092 5.9365 0.810092 6.08384 1.07009C6.23984 1.33009 6.31784 1.62043 6.31784 1.94109V3.83909ZM4.78384 3.83909V1.94109C4.78384 1.81976 4.72317 1.75909 4.60184 1.75909H2.20984C2.10584 1.75909 2.05384 1.81543 2.05384 1.92809V3.83909C2.05384 3.95176 2.10584 4.00809 2.20984 4.00809H4.60184C4.72317 4.00809 4.78384 3.95176 4.78384 3.83909Z" fill="#D82727"/>
<path d="M9.32561 1.04409C9.32561 1.31276 9.22594 1.54676 9.02661 1.74609C8.83594 1.93676 8.61061 2.03209 8.35061 2.03209C8.08194 2.03209 7.84794 1.93676 7.64861 1.74609C7.45794 1.54676 7.36261 1.31276 7.36261 1.04409C7.36261 0.784092 7.45794 0.558759 7.64861 0.368092C7.84794 0.168759 8.08194 0.0690918 8.35061 0.0690918C8.61061 0.0690918 8.83594 0.168759 9.02661 0.368092C9.22594 0.558759 9.32561 0.784092 9.32561 1.04409ZM9.11761 8.40209C9.11761 8.56676 9.05694 8.70976 8.93561 8.83109C8.82294 8.94376 8.68428 9.00009 8.51961 9.00009H8.16861C8.00394 9.00009 7.86094 8.94376 7.73961 8.83109C7.62694 8.70976 7.57061 8.56676 7.57061 8.40209V3.00709C7.57061 2.84243 7.62694 2.70376 7.73961 2.59109C7.86094 2.46976 8.00394 2.40909 8.16861 2.40909H8.51961C8.68428 2.40909 8.82294 2.46976 8.93561 2.59109C9.05694 2.70376 9.11761 2.84243 9.11761 3.00709V8.40209Z" fill="#D82727"/>
<path d="M15.0774 7.54409C15.0774 7.95143 14.9344 8.29809 14.6484 8.58409C14.3711 8.86143 14.0331 9.00009 13.6344 9.00009H11.8274C11.4287 9.00009 11.0864 8.86143 10.8004 8.58409C10.5144 8.29809 10.3714 7.95143 10.3714 7.54409V3.72209C10.3714 3.45343 10.4364 3.21076 10.5664 2.99409C10.7051 2.76876 10.8827 2.59109 11.0994 2.46109C11.3161 2.33109 11.5587 2.26609 11.8274 2.26609H13.6344C13.9031 2.26609 14.1457 2.33109 14.3624 2.46109C14.5791 2.59109 14.7524 2.76876 14.8824 2.99409C15.0124 3.21076 15.0774 3.45343 15.0774 3.72209V4.39809C15.0774 4.56276 15.0211 4.70576 14.9084 4.82709C14.7957 4.93976 14.6571 4.99609 14.4924 4.99609H14.1284C13.9637 4.99609 13.8251 4.93976 13.7124 4.82709C13.5997 4.70576 13.5434 4.56276 13.5434 4.39809V3.99509C13.5434 3.94309 13.5217 3.89976 13.4784 3.86509C13.4437 3.83043 13.4047 3.81309 13.3614 3.81309H12.1004C12.0571 3.81309 12.0137 3.83043 11.9704 3.86509C11.9357 3.89976 11.9184 3.94309 11.9184 3.99509V7.29709C11.9184 7.34043 11.9357 7.37943 11.9704 7.41409C12.0137 7.44876 12.0571 7.46609 12.1004 7.46609H13.3614C13.4047 7.46609 13.4437 7.44876 13.4784 7.41409C13.5217 7.37943 13.5434 7.34043 13.5434 7.29709V6.89409C13.5434 6.72943 13.5997 6.59076 13.7124 6.47809C13.8251 6.35676 13.9637 6.29609 14.1284 6.29609H14.4924C14.6571 6.29609 14.7957 6.35676 14.9084 6.47809C15.0211 6.59076 15.0774 6.72943 15.0774 6.89409V7.54409Z" fill="#D82727"/>
<path d="M20.7891 8.63609C20.6937 8.87876 20.5161 9.00009 20.2561 9.00009H19.7751C19.6017 9.00009 19.4501 8.93509 19.3201 8.80509L17.7991 7.12809C17.7904 7.11076 17.7687 7.10643 17.7341 7.11509C17.7081 7.12376 17.6951 7.14543 17.6951 7.18009V8.40209C17.6951 8.56676 17.6344 8.70976 17.5131 8.83109C17.4004 8.94376 17.2617 9.00009 17.0971 9.00009H16.7331C16.5684 9.00009 16.4254 8.94376 16.3041 8.83109C16.1914 8.70976 16.1351 8.56676 16.1351 8.40209V0.810092C16.1351 0.636759 16.1914 0.493759 16.3041 0.381092C16.4254 0.268425 16.5684 0.212092 16.7331 0.212092H17.0971C17.2617 0.212092 17.4004 0.268425 17.5131 0.381092C17.6344 0.493759 17.6951 0.636759 17.6951 0.810092V4.09909C17.6951 4.12509 17.7081 4.14676 17.7341 4.16409C17.7687 4.17276 17.7904 4.16409 17.7991 4.13809L19.1771 2.64309C19.2897 2.51309 19.4327 2.44809 19.6061 2.44809H20.0871C20.3384 2.44809 20.5204 2.56943 20.6331 2.81209C20.6764 2.91609 20.6894 3.02876 20.6721 3.15009C20.6547 3.26276 20.6071 3.35809 20.5291 3.43609L18.6441 5.51609C18.6094 5.55076 18.5921 5.59409 18.5921 5.64609C18.5921 5.68943 18.6094 5.72409 18.6441 5.75009L20.6851 7.99909C20.7631 8.08576 20.8107 8.18976 20.8281 8.31109C20.8541 8.42376 20.8411 8.53209 20.7891 8.63609Z" fill="#D82727"/>
<path d="M27.6837 7.28409C27.6837 7.59609 27.6057 7.88209 27.4497 8.14209C27.2937 8.40209 27.0857 8.61009 26.8257 8.76609C26.5657 8.92209 26.2797 9.00009 25.9677 9.00009H23.6277C23.3157 9.00009 23.0254 8.92209 22.7567 8.76609C22.4967 8.61009 22.2887 8.40209 22.1327 8.14209C21.9767 7.88209 21.8987 7.59609 21.8987 7.28409V0.810092C21.8987 0.636759 21.9551 0.493759 22.0677 0.381092C22.1891 0.268425 22.3321 0.212092 22.4967 0.212092H22.8607C23.0254 0.212092 23.1641 0.268425 23.2767 0.381092C23.3981 0.493759 23.4587 0.636759 23.4587 0.810092V7.28409C23.4587 7.32743 23.4761 7.37076 23.5107 7.41409C23.5454 7.44876 23.5844 7.46609 23.6277 7.46609H25.9677C26.0111 7.46609 26.0501 7.44876 26.0847 7.41409C26.1194 7.37076 26.1367 7.32743 26.1367 7.28409V0.810092C26.1367 0.636759 26.1931 0.493759 26.3057 0.381092C26.4271 0.268425 26.5701 0.212092 26.7347 0.212092H27.0857C27.2591 0.212092 27.4021 0.268425 27.5147 0.381092C27.6274 0.493759 27.6837 0.636759 27.6837 0.810092V7.28409Z" fill="#D82727"/>
<path d="M33.4475 7.54409C33.4475 7.95143 33.3045 8.29809 33.0185 8.58409C32.7412 8.86143 32.4032 9.00009 32.0045 9.00009H30.4705C30.4272 9.00009 30.3838 9.01743 30.3405 9.05209C30.3058 9.08676 30.2885 9.12576 30.2885 9.16909V10.4821C30.2885 10.6468 30.2322 10.7854 30.1195 10.8981C30.0068 11.0194 29.8682 11.0801 29.7035 11.0801H29.3395C29.1748 11.0801 29.0318 11.0194 28.9105 10.8981C28.7978 10.7854 28.7415 10.6468 28.7415 10.4821V3.72209C28.7415 3.45343 28.8065 3.21076 28.9365 2.99409C29.0752 2.76876 29.2528 2.59109 29.4695 2.46109C29.6862 2.33109 29.9288 2.26609 30.1975 2.26609H32.0045C32.2732 2.26609 32.5159 2.33109 32.7325 2.46109C32.9492 2.59109 33.1225 2.76876 33.2525 2.99409C33.3825 3.21076 33.4475 3.45343 33.4475 3.72209V7.54409ZM31.9135 7.29709V3.99509C31.9135 3.94309 31.8918 3.89976 31.8485 3.86509C31.8138 3.83043 31.7748 3.81309 31.7315 3.81309H30.4705C30.4272 3.81309 30.3838 3.83043 30.3405 3.86509C30.3058 3.89976 30.2885 3.94309 30.2885 3.99509V7.29709C30.2885 7.34043 30.3058 7.37943 30.3405 7.41409C30.3838 7.44876 30.4272 7.46609 30.4705 7.46609H31.7315C31.7748 7.46609 31.8138 7.44876 31.8485 7.41409C31.8918 7.37943 31.9135 7.34043 31.9135 7.29709Z" fill="#D82727"/>
</svg>
